<svg width="414" height="423" viewBox="0 0 414 423" fill="none"
  xmlns="http://www.w3.org/2000/svg">
  <path d="M70.2969 416.939C79.3624 418.882 90.1318 422.624 102.111 422.624C97.5783 416.796 95.0649 404.961 95.0649 392.657C95.0649 367.726 100.893 334.54 112.548 293.098C124.528 251.334 139.745 210.539 158.199 170.715L168.398 149.833C182.644 121.017 197.213 96.5731 212.106 76.4995C227.323 56.1024 241.892 42.1805 255.815 34.7337L227.647 166.83L223.276 188.199L185.881 364.489H255.815L332.062 7.05176C322.024 2.51904 309.237 0.252686 293.696 0.252686C266.822 0.252686 238.494 13.689 208.707 40.5615C179.244 67.1103 151.238 101.43 124.69 143.519C114.653 142.548 106.235 142.062 99.4358 142.062C80.9811 142.062 64.1452 144.814 48.9283 150.318C33.7113 155.498 21.732 162.621 12.9903 171.687C4.57243 180.752 0.363464 190.789 0.363464 201.797C0.363464 210.862 3.11547 217.823 8.6195 222.68C14.1235 227.536 21.4082 229.964 30.4736 229.964C38.2441 229.964 44.7195 228.346 49.8996 225.108C55.08 221.547 57.6701 216.852 57.6701 211.024C57.6701 207.463 56.8606 204.063 55.2418 200.826C53.9468 197.588 52.6515 195.969 51.3565 195.969C54.2705 187.875 60.422 181.885 69.8111 178C79.2003 174.115 91.9893 171.687 108.178 170.715C86.8089 207.625 69.4874 244.373 56.2132 280.957C43.2624 317.543 36.7872 346.681 36.7872 368.375C36.7872 383.916 40.0249 395.409 46.5001 402.855C53.2992 410.302 61.2315 414.996 70.2969 416.939Z" fill="#D33A56"/>
  <path d="M307.748 121.163L234.947 132.658L185.492 364.651H255.916L270.457 301.636H272.885C300.73 301.636 325.337 295.323 346.704 282.696C368.073 269.745 384.424 253.233 395.755 233.16C407.412 213.086 413.237 192.527 413.237 171.483C413.237 153.999 409.03 138.135 400.611 123.889C392.516 109.32 379.89 97.664 362.73 88.9223C345.57 80.1807 332.368 78.338 306.79 78.338C280.319 78.338 248.343 93.1578 221.842 105.44L221.606 105.549C195.056 117.529 172.947 127.603 154.168 154.057C141.947 171.273 133.374 182.641 132.872 203.748C132.541 217.664 133.59 226.589 140.79 238.502C154.947 261.926 188.869 263.27 206.351 263.27C206.351 262.623 187.295 259.623 176.728 241.416C174.462 236.56 173.328 228.142 173.328 216.162C173.328 178.929 184.336 149.952 206.351 129.231C228.691 108.51 259.612 98.1497 299.112 98.1497C319.185 98.1497 334.238 104.301 344.276 116.604C354.313 128.907 359.332 144.772 359.332 164.198C359.332 181.681 355.608 199.488 348.161 217.619C340.715 235.75 330.353 250.967 317.079 263.27C304.128 275.573 289.884 282.372 274.342 283.667L307.748 121.163Z" fill="#E95872"/>
</svg>
