<svg width="567" height="581" viewBox="0 0 567 581" fill="none"
  xmlns="http://www.w3.org/2000/svg">
  <g clip-path="url(#clip0_193_139)">
    <path d="M96.0397 572.278C108.489 574.946 123.279 580.085 139.73 580.085C133.505 572.082 130.054 555.829 130.054 538.932C130.054 504.695 138.057 459.12 154.064 402.207C170.515 344.853 191.412 288.829 216.756 234.139L230.762 205.461C250.326 165.889 270.334 132.32 290.787 104.752C311.684 76.7411 331.691 57.6221 350.812 47.3955L312.129 228.804L306.126 258.149L254.772 500.249H350.812L455.522 9.37978C441.737 3.15499 424.177 0.0426025 402.834 0.0426025C365.929 0.0426025 327.025 18.4947 286.118 55.3988C245.657 91.8583 207.197 138.989 170.737 196.79C156.954 195.457 145.393 194.79 136.056 194.79C110.712 194.79 87.5916 198.569 66.6941 206.128C45.7967 213.242 29.3454 223.024 17.3405 235.473C5.78018 247.923 0 261.706 0 276.824C0 289.273 3.77934 298.833 11.338 305.502C18.8967 312.171 28.9008 315.506 41.3503 315.506C52.0215 315.506 60.9142 313.283 68.0281 308.837C75.1423 303.946 78.6992 297.499 78.6992 289.496C78.6992 284.605 77.5876 279.936 75.3646 275.49C73.5861 271.043 71.8073 268.82 70.0288 268.82C74.0306 257.705 82.4784 249.479 95.3726 244.143C108.267 238.808 125.83 235.473 148.061 234.139C118.716 284.827 94.9281 335.293 76.6985 385.534C58.9131 435.778 50.0208 475.793 50.0208 505.585C50.0208 526.928 54.4671 542.711 63.3595 552.937C72.6967 563.164 83.5901 569.611 96.0397 572.278Z" fill="#D33A56"/>
    <path d="M422 166.543L322 182.043L254.237 500.471H350.95L370.92 413.933H374.254C412.494 413.933 446.286 405.263 475.63 387.923C504.976 370.137 527.43 347.462 542.992 319.895C559 292.328 567 264.094 567 235.193C567 211.183 561.222 189.396 549.66 169.833C538.544 149.824 521.204 133.818 497.639 121.813C474.073 109.808 455.943 107.277 420.815 107.277C384.464 107.277 340.55 127.629 304.157 144.496L303.832 144.647C267.372 161.098 237.009 174.933 211.22 211.262C194.437 234.905 182.663 250.517 181.974 279.502C181.52 298.614 182.96 310.87 192.848 327.231C212.29 359.398 258.876 361.245 282.883 361.245C282.883 360.356 256.714 356.237 242.202 331.233C239.089 324.563 237.533 313.003 237.533 296.552C237.533 245.42 252.649 205.625 282.883 177.169C313.562 148.713 356.027 134.485 410.272 134.485C437.837 134.485 458.511 142.933 472.295 159.829C486.08 176.724 492.972 198.511 492.972 225.189C492.972 249.199 487.857 273.653 477.631 298.552C467.405 323.452 453.175 344.349 434.945 361.245C417.161 378.141 397.598 387.478 376.255 389.256L422 166.543Z" fill="#E95872"/>
  </g>
  <defs>
    <clipPath id="clip0_193_139">
      <rect width="567" height="581" fill="white"/>
    </clipPath>
  </defs>
</svg>
